<?xml version="1.0" encoding="UTF-8"?>
<svg xmlns="http://www.w3.org/2000/svg" viewBox="0 0 680 100" width="680" height="100" role="img" aria-labelledby="title desc">
  <title id="title">Linear flow template</title>
  <desc id="desc">Sequential box-arrow-box chain with placeholder steps</desc>
  <rect width="100%" height="100%" fill="#111827"/>
  <g font-family="system-ui, Segoe UI, sans-serif" font-size="11" fill="#F1F5F9">
    <text x="340" y="16" text-anchor="middle" font-weight="700" font-size="12" fill="#06B6D4">[Title  -  linear process]</text>
  </g>
  <g stroke="#0e7490" stroke-width="1.5" fill="none">
    <path d="M 148 58 L 158 58"/>
    <path d="M 288 58 L 298 58"/>
    <path d="M 428 58 L 438 58"/>
  </g>
  <g fill="#708090">
    <polygon points="158,58 152,54 152,62"/>
    <polygon points="298,58 292,54 292,62"/>
    <polygon points="438,58 432,54 432,62"/>
  </g>
  <g font-family="system-ui, Segoe UI, sans-serif">
    <rect x="20" y="32" width="128" height="52" rx="4" fill="#3d5a80"/>
    <rect x="160" y="32" width="128" height="52" rx="4" fill="#2c5282"/>
    <rect x="300" y="32" width="128" height="52" rx="4" fill="#285e61"/>
    <rect x="440" y="32" width="128" height="52" rx="4" fill="#744210"/>
    <text x="84" y="54" text-anchor="middle" fill="#fff" font-weight="700" font-size="12">Step A</text>
    <text x="84" y="70" text-anchor="middle" fill="#fff" font-size="9">[subtitle]</text>
    <text x="224" y="54" text-anchor="middle" fill="#fff" font-weight="700" font-size="12">Step B</text>
    <text x="224" y="70" text-anchor="middle" fill="#fff" font-size="9">[subtitle]</text>
    <text x="364" y="54" text-anchor="middle" fill="#fff" font-weight="700" font-size="12">Step C</text>
    <text x="364" y="70" text-anchor="middle" fill="#fff" font-size="9">[subtitle]</text>
    <text x="504" y="54" text-anchor="middle" fill="#fff" font-weight="700" font-size="12">Step D</text>
    <text x="504" y="70" text-anchor="middle" fill="#fff" font-size="9">[subtitle]</text>
  </g>
  <text x="340" y="94" text-anchor="middle" font-family="system-ui, sans-serif" font-size="8.5" fill="#708090">[Footer note  -  additional context]</text>
</svg>
